<?xml version="1.0" standalone="no"?>
<!DOCTYPE svg PUBLIC "-//W3C//DTD SVG 1.1//EN" "http://www.w3.org/Graphics/SVG/1.1/DTD/svg11.dtd" >
<svg xmlns="http://www.w3.org/2000/svg">
<metadata></metadata>
<defs>
<font id="dax-mediumregular" horiz-adv-x="1118" >
<font-face units-per-em="2048" ascent="1638" descent="-410" />
<missing-glyph horiz-adv-x="557" />
<glyph horiz-adv-x="2048" />
<glyph horiz-adv-x="2048" />
<glyph unicode="&#xd;" horiz-adv-x="2048" />
<glyph unicode=" "  horiz-adv-x="557" />
<glyph unicode="&#x09;" horiz-adv-x="557" />
<glyph unicode="&#xa0;" horiz-adv-x="557" />
<glyph unicode="!" horiz-adv-x="636" d="M190 137q0 62 43.5 106t106.5 44q61 0 105 -44t44 -106q0 -63 -43.5 -107t-105.5 -44q-63 0 -106.5 44t-43.5 107zM190 1409h297l-53 -926h-190z" />
<glyph unicode="&#x22;" horiz-adv-x="845" d="M129 1374q41 56 113 56q68 0 112 -56l-49 -543h-129zM492 1376q45 54 112 54q68 0 113 -54l-49 -545h-129z" />
<glyph unicode="#" d="M66 455v123h215l51 288h-195v123h215l74 420h141l-73 -420h223l71 420h142l-74 -418h197v-125h-217l-54 -288h197v-123h-217l-78 -455h-141l78 455h-220l-82 -455h-139l78 455h-192zM422 578h219l53 288h-221z" />
<glyph unicode="$" d="M156 61l61 172q101 -63 236 -63q103 0 165 61t62 164q0 84 -52 140t-173 104q-141 57 -214 153t-73 224q0 155 95 268.5t257 134.5l-20 242h145l-20 -238q160 -8 260 -73l-54 -148q-101 60 -213 60q-95 0 -151.5 -57.5t-56.5 -153.5q0 -90 54 -141t165 -99 q165 -71 237 -170.5t72 -230.5q0 -164 -100 -278t-263 -140l23 -258h-152l21 252q-203 5 -311 75z" />
<glyph unicode="%" horiz-adv-x="1783" d="M129 946q0 72 7 134.5t26.5 129t51 113.5t85 77t123.5 30t124 -30t85.5 -77t51.5 -113.5t27 -129.5t7 -134t-7 -133.5t-27 -128t-51.5 -112.5t-85.5 -77t-124 -30t-123.5 30t-85 76.5t-51 112.5t-26.5 128.5t-7 133.5zM293 952q0 -60 2 -105t10 -96.5t21 -84.5 t37.5 -55.5t58.5 -22.5q42 0 70 30.5t40.5 89t16.5 113t4 131.5q0 60 -2 105.5t-10 98.5t-21.5 87t-38.5 57t-59 23t-58.5 -23t-37.5 -57t-21 -87t-10 -98.5t-2 -105.5zM588 14l479 1411l125 -32l-479 -1411zM1067 463q0 71 7 133.5t26.5 129t51 113.5t85 77t123.5 30 t124 -30t85.5 -77.5t51.5 -113.5t27 -128.5t7 -133.5t-7 -134t-27 -129t-51.5 -113t-85.5 -77t-124 -30t-123.5 30t-85 77t-51 113t-26.5 128.5t-7 134.5zM1231 469q0 -60 2 -105t10 -97.5t21 -86t37.5 -56t58.5 -22.5q42 0 70 31t40.5 90t16.5 114t4 132q0 76 -4 131.5 t-16.5 115t-40.5 91t-70 31.5q-34 0 -58.5 -23t-37.5 -57t-21 -86.5t-10 -98t-2 -104.5z" />
<glyph unicode="&#x26;" horiz-adv-x="1298" d="M96 389q0 149 94 252t246 150v4q-121 40 -185.5 118t-64.5 187q0 145 111.5 237.5t296.5 92.5q96 0 180.5 -22.5t138.5 -55.5l-73 -146q-85 51 -195 51q-105 0 -157 -47t-52 -133q0 -88 67.5 -140t170.5 -52q229 0 532 159l74 -153q-111 -52 -225 -80v-750 q-129 -81 -412 -81q-255 0 -401 107t-146 302zM365 403q0 -127 72 -195.5t218 -68.5q98 0 156 25v600q-240 -56 -343 -135t-103 -226z" />
<glyph unicode="'" horiz-adv-x="485" d="M129 1374q41 56 113 56q70 0 114 -56l-51 -543h-127z" />
<glyph unicode="(" horiz-adv-x="780" d="M125 586q0 265 113.5 514.5t363.5 533.5l121 -69q-334 -464 -334 -979q0 -513 334 -983l-119 -68q-251 283 -365 534.5t-114 516.5z" />
<glyph unicode=")" horiz-adv-x="780" d="M57 -397q334 475 334 983q0 511 -334 979l119 69q251 -283 365 -533t114 -515t-114 -516.5t-365 -534.5z" />
<glyph unicode="*" horiz-adv-x="905" d="M100 1368q0 41 30 70.5t71 29.5q40 0 69 -29.5t29 -70.5q0 -42 -29 -71t-71 -29q-40 0 -69.5 29t-29.5 71zM186 1073q0 42 30.5 72.5t70.5 30.5q41 0 69.5 -30t28.5 -73q0 -41 -29 -70.5t-69 -29.5t-70.5 29.5t-30.5 70.5zM354 1548q0 42 29.5 72.5t69.5 30.5t69 -30 t29 -73q0 -41 -29 -69.5t-69 -28.5t-69.5 28.5t-29.5 69.5zM371 1286q0 35 24 58.5t58 23.5t58 -23.5t24 -58.5q0 -36 -24 -60t-58 -24t-58 24.5t-24 59.5zM516 1073q0 43 29 72t71 29q40 0 69.5 -29.5t29.5 -71.5t-29.5 -71t-71.5 -29q-40 0 -69 29.5t-29 70.5zM606 1366 q0 42 29.5 72t69.5 30t70 -30t30 -72t-30 -71t-70 -29t-69.5 29t-29.5 71z" />
<glyph unicode="+" d="M156 600v164h321v340h164v-340h322v-164h-322v-342h-164v342h-321z" />
<glyph unicode="," horiz-adv-x="577" d="M12 -346l183 549q57 71 155 71q92 0 107 -71l-297 -549h-148z" />
<glyph unicode="-" horiz-adv-x="716" d="M109 594v190h499v-190h-499z" />
<glyph unicode="." horiz-adv-x="542" d="M121 137q0 63 44 107.5t107 44.5q62 0 106 -44.5t44 -107.5q0 -61 -44 -105t-106 -44q-63 0 -107 43.5t-44 105.5z" />
<glyph unicode="/" horiz-adv-x="1171" d="M25 -393l966 2025l156 -76l-967 -2025z" />
<glyph unicode="0" d="M104 705q0 84 8.5 163.5t28 164t54.5 154t83.5 125t120.5 87t160 31.5t160 -31.5t120.5 -87t83.5 -125t54.5 -154t28 -164t8.5 -163.5t-8.5 -163.5t-28 -164t-54.5 -154t-83.5 -125t-120.5 -87t-160 -31.5t-160 31.5t-120.5 87t-83.5 125t-54.5 154t-28 164t-8.5 163.5z M344 707q0 -87 4.5 -159t18 -150t36 -131t62.5 -87.5t94 -34.5t94 34.5t62.5 87.5t36 131t18 150t4.5 159q0 88 -4.5 160t-18 151t-36 132.5t-62.5 88.5t-94 35t-94 -35t-62.5 -88.5t-36 -132.5t-18 -151t-4.5 -160z" />
<glyph unicode="1" d="M162 1194q179 23 294 83.5t158 131.5h179v-1409h-254v1128q-52 -29 -150 -52.5t-196 -31.5z" />
<glyph unicode="2" d="M72 0l487 700q75 107 101 178t26 140q0 112 -64.5 170.5t-193.5 58.5q-146 0 -254 -57l-61 160q156 80 379 80q114 0 203 -31t144 -85t83 -122.5t28 -147.5q0 -83 -43.5 -178t-138.5 -221l-332 -438h527v-207h-891z" />
<glyph unicode="3" d="M78 57l67 168q108 -59 275 -59q129 0 204.5 66.5t75.5 185.5q0 65 -24 114.5t-61.5 77.5t-89 44.5t-99 21.5t-100.5 4v135q154 14 243.5 81.5t89.5 172.5q0 92 -60 137t-157 45q-159 0 -264 -55l-63 156q148 78 366 78q191 0 310.5 -89t119.5 -243q0 -50 -16.5 -95 t-42 -77.5t-59.5 -60t-64 -44t-61 -28.5l2 -5q299 -92 299 -370q0 -196 -141 -317t-363 -121q-249 0 -387 77z" />
<glyph unicode="4" d="M104 299v154l560 956h243v-969h109v-141h-109v-299h-235v299h-568zM268 440h404l2 518l4 207q-1 0 -13 -24.5t-38.5 -75t-53.5 -98.5z" />
<glyph unicode="5" d="M98 57l66 170q113 -63 276 -63q114 0 195.5 67.5t81.5 186.5q0 58 -17 104t-55.5 85.5t-101.5 60.5t-155.5 27t-217.5 -15l70 729h696v-207h-522l-29 -366q152 13 268.5 -13t188 -84t107.5 -139t36 -182q0 -186 -142 -312t-364 -126q-245 0 -381 77z" />
<glyph unicode="6" d="M111 518q0 129 29 244.5t76.5 201.5t111.5 159.5t130 123.5t135.5 88t125 57.5t102.5 28.5l64 -164q-363 -111 -492 -434q79 29 166 29q73 0 138.5 -15t124.5 -48t101.5 -82t67.5 -122t25 -163q0 -125 -51 -224t-154.5 -158.5t-243.5 -59.5q-116 0 -205 41t-143 115 t-81 170t-27 212zM342 512q0 -107 22 -187t74.5 -130t132.5 -50q72 0 121 43t68.5 106t19.5 140q0 142 -68 215.5t-202 73.5q-77 0 -152 -29q-16 -84 -16 -182z" />
<glyph unicode="7" d="M121 1202v207h932l-185 -436q-117 -276 -212.5 -547t-131.5 -426h-307l533 1202h-629z" />
<glyph unicode="8" d="M104 342q0 121 68.5 210t226.5 181q-136 83 -195 163.5t-59 188.5q0 152 119 248.5t295 96.5t295 -96t119 -247q0 -108 -59 -187.5t-195 -158.5q157 -95 226 -186.5t69 -210.5q0 -163 -127 -263.5t-328 -100.5q-126 0 -228 41t-164.5 124.5t-62.5 196.5zM324 348 q0 -91 67 -151t164 -60q101 0 165 59t64 150q0 92 -46 156t-185 145q-138 -79 -183.5 -143t-45.5 -156zM360 1090q0 -83 43 -137.5t162 -127.5q117 69 160 126t43 136q0 87 -57.5 143t-147.5 56q-92 0 -147.5 -54.5t-55.5 -141.5z" />
<glyph unicode="9" d="M102 979q0 191 121.5 316.5t331.5 125.5q116 0 204.5 -41t142 -115t80 -170t26.5 -212q0 -129 -29 -244.5t-76.5 -201.5t-111.5 -159.5t-130 -123t-136 -87.5t-125.5 -58t-102.5 -29l-64 165q66 19 128 48.5t132.5 79t131.5 128t100 177.5q-89 -29 -166 -29 q-73 0 -138.5 15t-124.5 48t-101.5 82t-67.5 122t-25 163zM336 975q0 -289 270 -289q72 0 152 31q16 76 16 180q0 79 -12.5 144.5t-39 116.5t-72 79.5t-105.5 28.5q-73 0 -122 -43.5t-68 -106t-19 -141.5z" />
<glyph unicode=":" horiz-adv-x="542" d="M121 137q0 63 44 107.5t107 44.5q62 0 106 -44.5t44 -107.5q0 -61 -44 -105t-106 -44q-63 0 -107 43.5t-44 105.5zM121 776q0 62 44 106t107 44q62 0 106 -44t44 -106q0 -63 -44 -107t-106 -44q-63 0 -107 44t-44 107z" />
<glyph unicode=";" horiz-adv-x="577" d="M12 -346l183 549q58 76 153 76q49 0 76.5 -22t32.5 -54l-297 -549h-148zM156 776q0 62 44 106t105 44q63 0 107.5 -44t44.5 -106q0 -63 -44.5 -107t-107.5 -44q-62 0 -105.5 44t-43.5 107z" />
<glyph unicode="&#x3c;" d="M156 610v152l807 348v-178l-609 -246l609 -246v-178z" />
<glyph unicode="=" d="M156 401v164h807v-164h-807zM156 797v164h807v-164h-807z" />
<glyph unicode="&#x3e;" d="M156 262v178l608 246l-608 246v178l807 -348v-152z" />
<glyph unicode="?" horiz-adv-x="864" d="M80 1348q136 77 323 77q200 0 317.5 -92t117.5 -248q0 -67 -29.5 -126.5t-77 -100t-95.5 -68t-97 -42.5l-23 -265h-188l-31 340q114 25 196 87t82 153q0 85 -54.5 136.5t-164.5 51.5q-114 0 -209 -51zM274 137q0 62 43.5 106t106.5 44q61 0 105 -44t44 -106 q0 -63 -43.5 -106t-105.5 -43q-63 0 -106.5 43t-43.5 106z" />
<glyph unicode="@" horiz-adv-x="1779" d="M119 461q0 192 73 370.5t197.5 310.5t298.5 211t365 79q269 0 436.5 -158t167.5 -426q0 -84 -18.5 -179t-58 -190.5t-93 -172.5t-130.5 -125t-165 -48q-73 0 -110 42t-46 138q-117 -176 -309 -176q-124 0 -188 93.5t-64 230.5q0 86 29 182t80 181.5t134 141.5t179 56 q159 0 233 -172l29 137h125l-78 -360q-4 -17 -12 -55t-12.5 -59t-10 -51t-8 -55t-2.5 -47q0 -66 16.5 -93t57.5 -27q61 0 120 62t100 154t66 197t25 193q0 229 -139.5 364.5t-364.5 135.5q-172 0 -325.5 -75.5t-259 -199t-167 -284.5t-61.5 -330q0 -202 86 -347.5 t234.5 -217.5t343.5 -72q224 0 381 76t299 227l57 -72q-148 -160 -322 -239.5t-417 -79.5q-230 0 -403.5 84t-271 250t-97.5 395zM612 463q0 -94 45.5 -156.5t124.5 -62.5q57 0 107 32t84 81.5t59 110.5t37.5 118.5t13.5 105.5q1 104 -50 166t-126 62q-71 0 -130 -48.5 t-93.5 -121.5t-53 -148.5t-18.5 -138.5z" />
<glyph unicode="A" horiz-adv-x="1226" d="M25 0l467 1409h245l465 -1409h-268l-109 362h-454l-113 -362h-233zM412 514h376l-145 496q-14 46 -23 88.5t-12 61.5l-2 20h-4q-6 -66 -39 -170z" />
<glyph unicode="B" horiz-adv-x="1189" d="M145 59v1291q67 36 172.5 58t229.5 22q246 0 377 -101t131 -264q0 -69 -23.5 -127t-63 -96t-84 -62t-91.5 -35v-4q40 -9 81.5 -28t83 -51t73 -71.5t51.5 -93t20 -112.5q0 -204 -144 -304.5t-395 -100.5q-269 0 -418 79zM391 166q67 -27 164 -27q134 0 210.5 60t76.5 190 q0 149 -88 219q-83 66 -262 66h-21l-80 -2v-506zM391 801l80 -2h22q165 0 236 57q76 61 76 193q0 233 -258 233q-83 0 -156 -25v-456z" />
<glyph unicode="C" horiz-adv-x="993" d="M100 705q0 116 22 222.5t66.5 198t108 159.5t152.5 106.5t194 38.5q180 0 291 -80l-57 -156q-80 49 -183 49q-87 0 -152 -45t-101 -123t-53 -169.5t-17 -198.5q0 -106 18.5 -198t56 -167.5t101 -119.5t147.5 -44q101 0 178 49l62 -168q-102 -79 -293 -79 q-130 0 -234.5 58t-170.5 158t-101 230t-35 279z" />
<glyph unicode="D" horiz-adv-x="1241" d="M145 59v1291q157 80 385 80q156 0 274.5 -52t191.5 -148t109 -225t36 -290q0 -129 -21 -238t-66.5 -202t-114.5 -157.5t-169 -101t-225 -36.5q-261 0 -400 79zM403 180q62 -20 138 -20q179 0 257.5 134t78.5 425q0 277 -82 409t-258 132q-79 0 -134 -21v-1059z" />
<glyph unicode="E" horiz-adv-x="923" d="M145 0v1409h686v-174h-425v-426h378v-172h-378v-463h425v-174h-686z" />
<glyph unicode="F" horiz-adv-x="907" d="M145 0v1409h684v-174h-423v-426h376v-172h-376v-637h-261z" />
<glyph unicode="G" horiz-adv-x="1226" d="M100 713q0 332 171.5 524.5t449.5 192.5q219 0 352 -78l-78 -160q-88 53 -243 53q-188 0 -287.5 -134t-99.5 -411q0 -259 93.5 -399.5t246.5 -140.5q91 0 141 26v463h-203v160h449v-750q-70 -40 -156.5 -59.5t-220.5 -19.5q-286 0 -450.5 191.5t-164.5 541.5z" />
<glyph unicode="H" horiz-adv-x="1255" d="M145 0v1409h261v-600h444v600h260v-1409h-260v637h-444v-637h-261z" />
<glyph unicode="I" horiz-adv-x="561" d="M150 0v1409h262v-1409h-262z" />
<glyph unicode="J" horiz-adv-x="561" d="M-84 -268q103 23 168.5 106t65.5 215v1356h262v-1333q0 -120 -38.5 -217t-107 -161t-157 -101.5t-193.5 -47.5v183z" />
<glyph unicode="K" horiz-adv-x="1136" d="M150 0v1409h260v-643h4l403 643h266l-440 -651l465 -758h-291l-403 713h-4v-713h-260z" />
<glyph unicode="L" horiz-adv-x="864" d="M150 0v1409h262v-1235h389v-174h-651z" />
<glyph unicode="M" horiz-adv-x="1617" d="M94 0l158 1409h262l252 -903q11 -40 20.5 -79.5t13.5 -58.5l3 -20h4q10 68 37 158l260 903h262l158 -1409h-246l-90 932q-2 25 -3.5 51.5t-2 46.5t-0.5 37v26v9h-4q-14 -80 -41 -170q-253 -885 -269 -932h-147l-266 934q-11 39 -21.5 81t-15.5 65l-4 22h-4v-18 q0 -72 -7 -150q-88 -893 -90 -934h-219z" />
<glyph unicode="N" horiz-adv-x="1331" d="M145 0v1409h246l504 -856q21 -36 40 -71.5t27 -53.5l9 -18h4q-6 67 -6 149v850h217v-1409h-209l-535 909q-21 36 -41.5 75.5t-30.5 61.5l-10 21h-4q9 -80 9 -164v-903h-220z" />
<glyph unicode="O" horiz-adv-x="1259" d="M100 705q0 154 30.5 282.5t92.5 229t166 157t242 56.5t241.5 -56.5t165 -157.5t91.5 -229t30 -282q0 -155 -30 -283t-91.5 -229t-165 -157t-241.5 -56q-111 0 -200.5 37t-150.5 102.5t-102 157.5t-59.5 198.5t-18.5 229.5zM365 713q0 -541 266 -541q54 0 97 21.5t71 61.5 t47.5 89t30 113t14.5 124.5t4 131.5q0 544 -264 544q-266 0 -266 -544z" />
<glyph unicode="P" horiz-adv-x="1124" d="M145 0v1350q153 80 390 80q259 0 386.5 -120t127.5 -319q0 -99 -34.5 -181.5t-104 -145t-186.5 -92.5q-86 -22 -190 -22q-38 0 -79 3l-56 4v-557h-254zM399 711l54 -4q29 -2 56 -2q141 -1 209 61q82 74 81 227q0 146 -63.5 216.5t-205.5 70.5q-73 0 -131 -23v-546z" />
<glyph unicode="Q" horiz-adv-x="1259" d="M100 707q0 153 30.5 281t92.5 228.5t166 157t242 56.5q139 0 242.5 -56.5t165 -157t91 -228t29.5 -281.5q0 -468 -258 -650l234 -288l-191 -170l-199 399q-60 -14 -114 -14q-138 0 -242 56t-166 156.5t-92.5 228.5t-30.5 282zM365 717q0 -86 5.5 -157t23 -145.5 t45.5 -125t77 -83t115 -32.5q55 0 98 21.5t71 62t48 90t30 113.5t14.5 124.5t4.5 131.5q0 540 -266 540t-266 -540z" />
<glyph unicode="R" horiz-adv-x="1159" d="M150 0v1350q156 80 385 80q257 0 388.5 -113t131.5 -316q0 -159 -104 -260t-273 -112v-4l420 -625h-289l-399 639h-4v-639h-256zM406 702q27 -10 96 -10q149 0 224 77t75 220q0 150 -62.5 220.5t-203.5 70.5q-74 0 -129 -25v-553z" />
<glyph unicode="S" horiz-adv-x="970" d="M76 59l63 183q98 -66 236 -66q104 0 164.5 59t60.5 158q0 79 -50 133.5t-169 104.5q-291 122 -291 385q0 173 116.5 293.5t305.5 120.5q197 0 309 -80l-57 -160q-100 63 -217 63q-96 0 -149.5 -54.5t-53.5 -149.5q0 -45 15 -80.5t46 -63t66 -47.5t86 -41 q80 -34 138.5 -75t92.5 -79.5t54 -85t26 -84.5t6 -83q0 -188 -127 -309t-323 -121q-225 0 -348 79z" />
<glyph unicode="T" horiz-adv-x="911" d="M63 1235v174h787v-174h-264v-1235h-260v1235h-263z" />
<glyph unicode="U" horiz-adv-x="1220" d="M145 410v999h261v-997q0 -110 61.5 -172t153.5 -62q93 0 153 62t60 172v997h241v-999q0 -192 -129 -312.5t-336 -120.5t-336 120.5t-129 312.5z" />
<glyph unicode="V" horiz-adv-x="1124" d="M31 1409h276l230 -905q9 -36 18 -80.5t13 -71.5l5 -26h5q16 96 36 178l234 905h248l-416 -1409h-225z" />
<glyph unicode="W" horiz-adv-x="1697" d="M59 1409h260l175 -922l24 -159h4q11 79 29 159l213 922h192l211 -922l27 -159h4q9 83 23 159l182 922h239l-323 -1409h-229l-211 862q-9 36 -15.5 74.5t-9.5 59.5l-2 20h-4q-7 -72 -27 -154l-209 -862h-229z" />
<glyph unicode="X" horiz-adv-x="1101" d="M31 0l381 721l-342 688h280l205 -477h4l232 477h247l-350 -657l383 -752h-291l-235 520h-4l-244 -520h-266z" />
<glyph unicode="Y" horiz-adv-x="1054" d="M18 1409h277l242 -584h4l252 584h247l-383 -801v-608h-260v608z" />
<glyph unicode="Z" horiz-adv-x="925" d="M43 0l479 1235h-440v174h764l-467 -1235h479v-174h-815z" />
<glyph unicode="[" horiz-adv-x="724" d="M145 -440v2048h492v-144h-270v-1759h270v-145h-492z" />
<glyph unicode="\" horiz-adv-x="1179" d="M25 1554l157 78l973 -2023l-158 -78z" />
<glyph unicode="]" horiz-adv-x="724" d="M88 -295h270v1759h-270v144h492v-2048h-492v145z" />
<glyph unicode="^" horiz-adv-x="1218" d="M180 954l314 412q47 59 116 59q70 0 115 -59l313 -412l-96 -94l-332 375l-334 -375z" />
<glyph unicode="_" d="M-20 -272h1159v-156h-1159v156z" />
<glyph unicode="`" horiz-adv-x="454" d="M-14 1503q18 43 100.5 43.5t144.5 -37.5l142 -288h-137z" />
<glyph unicode="a" horiz-adv-x="1062" d="M80 315q0 85 32.5 151t86.5 109t136 74t167 47t194 27v59q0 101 -57 142t-162 41q-136 0 -276 -68l-58 143q173 84 379 84q89 0 160 -20t128.5 -63t88.5 -118.5t31 -179.5v-684q-148 -79 -400 -79q-223 0 -336.5 86.5t-113.5 248.5zM315 324q0 -205 232 -205q85 0 149 31 v454q-97 -12 -160.5 -28t-117 -47t-78.5 -81t-25 -124z" />
<glyph unicode="b" horiz-adv-x="1124" d="M133 59v1549h248v-535q95 45 217 45q194 0 314 -147.5t120 -392.5q0 -281 -139 -439.5t-395 -158.5q-242 0 -365 79zM381 156q54 -23 127 -23q276 0 276 430q0 89 -13.5 161t-42.5 129t-79.5 88.5t-118.5 31.5q-90 0 -149 -33v-784z" />
<glyph unicode="c" horiz-adv-x="851" d="M92 555q0 267 123.5 418t314.5 151q168 0 256 -75l-53 -142q-58 47 -147 47q-124 0 -183 -103.5t-59 -291.5q0 -186 62 -292.5t176 -106.5q90 0 149 49l57 -154q-82 -75 -260 -75q-194 0 -315 153.5t-121 421.5z" />
<glyph unicode="d" horiz-adv-x="1124" d="M92 539q0 267 132.5 421t350.5 154q96 0 166 -20v514h250v-1549q-142 -79 -385 -79q-244 0 -379 148t-135 411zM340 553q0 -196 66 -305t206 -109q89 0 129 25v794q-52 15 -110 15q-79 0 -136.5 -32t-90.5 -91t-48.5 -132.5t-15.5 -164.5z" />
<glyph unicode="e" horiz-adv-x="1097" d="M92 555q0 268 126.5 418.5t344.5 150.5q217 0 330 -137.5t113 -394.5v-33l-676 -96q30 -309 301 -309q162 0 278 61l60 -158q-146 -77 -365 -77q-238 0 -375 149.5t-137 425.5zM315 588l457 69q0 314 -219 314q-114 0 -178 -96q-60 -90 -60 -265v-22z" />
<glyph unicode="f" horiz-adv-x="679" d="M74 944v160h123v133q0 187 115 287q100 86 264 86q25 0 51 -2v-160q-86 -2 -133.5 -44t-47.5 -142v-158h181v-160h-181v-944h-249v944h-123z" />
<glyph unicode="g" d="M92 528q0 276 137 436t398 160q116 0 209 -22t149 -58v-1060q0 -217 -121.5 -332t-331.5 -115q-116 0 -215.5 21t-160.5 57l69 164q119 -66 264 -66q254 0 254 248v70q-71 -41 -206 -41q-200 0 -322.5 145t-122.5 393zM340 541q0 -204 63 -305t199 -101q80 0 141 35v782 q-46 25 -129 25q-274 0 -274 -436z" />
<glyph unicode="h" horiz-adv-x="1136" d="M133 0v1608h250v-551q121 59 246 59q81 0 146 -18.5t107 -50t70 -75t40 -90.5t12 -100v-782h-250v776q0 83 -45.5 135t-149.5 52q-101 0 -176 -45v-918h-250z" />
<glyph unicode="i" horiz-adv-x="532" d="M129 1417q0 52 40 88.5t97 36.5q58 0 97.5 -36t39.5 -89q0 -51 -39.5 -87t-97.5 -36q-57 0 -97 36t-40 87zM141 0v1104h250v-1104h-250z" />
<glyph unicode="j" horiz-adv-x="536" d="M-47 -293q96 33 144 114.5t48 246.5v1036h250v-1010q0 -246 -125.5 -392.5t-316.5 -160.5v166zM133 1417q0 52 40 88.5t97 36.5t97.5 -36.5t40.5 -88.5q0 -51 -40 -87t-98 -36q-57 0 -97 36t-40 87z" />
<glyph unicode="k" horiz-adv-x="1046" d="M141 0v1608h248v-1004h4l350 500h254l-381 -506l426 -598h-280l-369 563h-4v-563h-248z" />
<glyph unicode="l" horiz-adv-x="536" d="M143 0v1608h250v-1608h-250z" />
<glyph unicode="m" horiz-adv-x="1757" d="M133 0v1044q168 80 414 80q236 0 344 -120q131 120 354 120q95 0 169.5 -28t119 -76t67.5 -107.5t23 -126.5v-786h-250v784q0 79 -46 130t-140 51q-108 0 -184 -76v-889h-250v791q0 81 -54 128.5t-153 47.5q-88 0 -164 -31v-936h-250z" />
<glyph unicode="n" horiz-adv-x="1136" d="M133 0v1044q170 80 432 80q96 0 172 -18.5t125.5 -49.5t82 -74.5t46 -91.5t13.5 -104v-786h-250v782q0 79 -45.5 132t-153.5 53q-91 0 -172 -31v-936h-250z" />
<glyph unicode="o" horiz-adv-x="1101" d="M92 551q0 125 28.5 229t84.5 181t144.5 120t201.5 43q114 0 202.5 -43t144 -120t84 -181t28.5 -229q0 -166 -49.5 -293t-154.5 -202.5t-255 -75.5t-255 75.5t-154.5 202.5t-49.5 293zM340 553q0 -403 211 -403q52 0 90.5 22.5t61 58.5t36.5 90.5t18.5 109t4.5 122.5 q0 88 -8.5 155t-30 129.5t-65 96t-107.5 33.5q-63 0 -106.5 -33.5t-65.5 -95.5t-30.5 -130t-8.5 -155z" />
<glyph unicode="p" horiz-adv-x="1124" d="M133 -440v1484q149 80 383 80q242 0 379 -148t137 -411q0 -267 -133 -423t-352 -156q-108 0 -166 22v-448h-248zM381 154q46 -19 111 -19q146 0 219 109t73 313q0 207 -63.5 312.5t-210.5 105.5q-72 0 -129 -23v-798z" />
<glyph unicode="q" horiz-adv-x="1124" d="M92 524q0 131 31.5 238.5t95 189.5t167.5 127t241 45q226 0 364 -80v-1484h-248v469q-85 -45 -211 -45q-198 0 -319 146.5t-121 393.5zM340 541q0 -406 260 -406q82 0 143 35v784q-47 23 -129 23q-138 0 -206 -112.5t-68 -323.5z" />
<glyph unicode="r" horiz-adv-x="696" d="M133 0v1044q93 44 214 64q93 15 232 16q42 0 87 -2l-50 -182q-57 20 -114 20h-12q-64 -2 -107 -28v-932h-250z" />
<glyph unicode="s" horiz-adv-x="849" d="M66 61l65 160q33 -27 88 -45t119 -18q76 0 123 43.5t47 111.5q0 69 -37.5 109.5t-124.5 73.5q-144 55 -198 132.5t-54 176.5q0 135 97.5 227t252.5 92q169 0 287 -77l-61 -146q-76 62 -176 62q-74 0 -116 -42.5t-42 -103.5q0 -63 41.5 -102t122.5 -72q78 -31 131.5 -68 t81.5 -79.5t39.5 -84.5t11.5 -94q0 -140 -108.5 -237.5t-284.5 -97.5q-189 0 -305 79z" />
<glyph unicode="t" horiz-adv-x="702" d="M74 944v160h123v244l249 69v-313h181v-160h-181v-645q0 -143 121 -143q27 0 60 10v-156q-51 -22 -127 -22q-152 0 -227.5 86t-75.5 213v657h-123z" />
<glyph unicode="u" d="M133 350v754h250v-768q0 -83 47 -134.5t139 -51.5q104 0 166 36v918h250v-1038q-167 -89 -424 -89q-218 0 -323 94t-105 279z" />
<glyph unicode="v" horiz-adv-x="1034" d="M43 1104h266l195 -713q10 -36 16.5 -73.5t7.5 -57.5l2 -20h5q5 69 28 151l199 713h233l-354 -1104h-238z" />
<glyph unicode="w" horiz-adv-x="1611" d="M57 1104h252l162 -715q8 -37 13 -73.5t6 -53.5l2 -18h4q5 61 28 145l195 715h209l186 -715q8 -31 15 -67.5t9 -57.5l3 -20h4q6 75 22 147l170 713h222l-308 -1104h-225l-190 692q-9 32 -14.5 67.5t-7.5 54.5l-1 20h-4q-5 -70 -25 -142l-194 -692h-225z" />
<glyph unicode="x" horiz-adv-x="1015" d="M33 0l342 571l-307 533h262l186 -361h4l195 361h235l-313 -516l346 -588h-274l-207 401h-4l-211 -401h-254z" />
<glyph unicode="y" horiz-adv-x="1034" d="M43 1104h266l191 -715q10 -38 15.5 -77.5t6.5 -59.5v-21h4q6 72 31 158l205 715h233l-503 -1544h-265l181 440z" />
<glyph unicode="z" horiz-adv-x="876" d="M57 0l420 944h-385v160h696l-405 -944h418v-160h-744z" />
<glyph unicode="{" horiz-adv-x="792" d="M90 612v131q82 3 125 53.5t43 170.5v303q0 93 34 160.5t95.5 105t136 55t166.5 17.5v-129q-110 0 -162.5 -47t-52.5 -150v-356q0 -208 -182 -246v-4q182 -38 182 -252v-356q0 -103 52.5 -150t162.5 -47v-131q-72 0 -134 10t-118 34.5t-95 62.5t-62 97t-23 134v307 q0 122 -43 173t-125 54z" />
<glyph unicode="|" horiz-adv-x="489" d="M145 -440v2048h199v-2048h-199z" />
<glyph unicode="}" horiz-adv-x="792" d="M102 -129q110 0 163.5 47t53.5 150v356q0 214 181 252v4q-181 38 -181 246v356q0 103 -53.5 150t-163.5 47v129q73 0 135 -10.5t118 -35t95 -62.5t62 -96.5t23 -133.5v-303q0 -120 42.5 -170.5t124.5 -53.5v-131q-81 -3 -124 -54t-43 -173v-307q0 -75 -23 -134t-62 -97 t-95 -62.5t-118 -34.5t-135 -10v131z" />
<glyph unicode="~" horiz-adv-x="1218" d="M162 694q35 76 84.5 120t134.5 52q48 5 95.5 -8t85.5 -34.5t75 -43.5t79 -35t83 -8q124 15 178 142l80 -154q-48 -143 -226 -166q-45 -6 -90.5 7t-83.5 34.5l-76 43t-81.5 34.5t-85.5 8q-120 -13 -176 -143z" />
<glyph unicode="&#xa1;" horiz-adv-x="636" d="M190 -440l54 925h190l53 -925h-297zM190 831q0 63 43.5 106.5t106.5 43.5q62 0 105.5 -43.5t43.5 -106.5q0 -61 -43.5 -105t-105.5 -44q-63 0 -106.5 43.5t-43.5 105.5z" />
<glyph unicode="&#xa2;" d="M176 709q0 202 95 329t253 154l-20 215h155l-16 -209q143 -8 213 -63l-51 -125q-62 41 -146 41q-122 0 -181.5 -90.5t-59.5 -247.5q0 -160 61.5 -249t177.5 -89q85 0 148 39l53 -135q-74 -56 -219 -64l18 -213h-157l22 219q-162 27 -254 152.5t-92 335.5z" />
<glyph unicode="&#xa3;" d="M121 659v146h158q-39 144 -39 252q0 157 113.5 265t314.5 108q108 0 193.5 -22.5t133.5 -53.5l-57 -154q-95 51 -217 51q-124 0 -184 -70t-60 -190q0 -82 29 -186h278v-146h-254q15 -74 15 -161q0 -76 -30.5 -165.5t-57.5 -125.5h557v-207h-881q99 114 155 239t56 246 q0 79 -27 174h-196z" />
<glyph unicode="&#xa4;" d="M92 322l144 145q-76 107 -76 233q0 129 76 236l-144 143l88 88l146 -143q107 76 233 76q129 0 236 -76l143 143l88 -88l-143 -143q75 -105 75 -236q0 -126 -75 -235l143 -143l-88 -89l-143 144q-107 -76 -236 -76q-128 0 -233 78l-146 -146zM315 700q0 -101 71.5 -172 t172.5 -71t172.5 71t71.5 172t-71.5 172.5t-172.5 71.5t-172.5 -71.5t-71.5 -172.5z" />
<glyph unicode="&#xa5;" d="M59 1409h260l248 -600h2l260 600h230l-246 -510l211 14v-112l-248 16l-92 -186l340 14v-115l-346 17l2 -547h-240v547l-348 -17v115l342 -14l-90 186l-252 -16v112l213 -14z" />
<glyph unicode="&#xa6;" horiz-adv-x="489" d="M145 373h199v-813h-199v813zM145 795v813h199v-813h-199z" />
<glyph unicode="&#xa7;" d="M145 553q0 198 232 346q-60 57 -86.5 114t-26.5 130q0 116 91.5 198t238.5 82q173 0 283 -73l-58 -133q-85 53 -180 53q-70 0 -112 -35t-42 -98q0 -50 25.5 -92.5t97.5 -104.5l183 -154q103 -87 143.5 -163t40.5 -177q0 -190 -236 -337q75 -69 104 -133.5t29 -135.5 q0 -127 -99.5 -212t-256.5 -85q-180 0 -297 80l60 150q86 -64 192 -64q73 0 121.5 36t48.5 99q0 47 -18.5 85t-79.5 89l-219 185q-101 85 -140 164.5t-39 185.5zM330 586q0 -70 27.5 -121.5t91.5 -106.5l178 -151q149 96 149 215q0 68 -24 117.5t-90 105.5l-187 160 q-145 -93 -145 -219z" />
<glyph unicode="&#xa8;" horiz-adv-x="454" d="M-74 1354q0 44 34.5 74t82.5 30t82.5 -30t34.5 -74t-34.5 -75.5t-82.5 -31.5t-82.5 31.5t-34.5 75.5zM293 1354q0 44 34.5 74t82.5 30t82 -30t34 -74t-34.5 -75.5t-81.5 -31.5q-48 0 -82.5 31.5t-34.5 75.5z" />
<glyph unicode="&#xa9;" horiz-adv-x="1667" d="M109 702q0 148 57.5 282.5t154.5 232t231 155.5t282 58q147 0 281 -58t231.5 -155.5t155 -232t57.5 -282.5t-57.5 -281.5t-155 -230t-231.5 -153.5t-281 -57q-148 0 -282 57t-231 153.5t-154.5 230t-57.5 281.5zM215 702q0 -167 82.5 -309t225 -224.5t311.5 -82.5 q168 0 310 82.5t224 224.5t82 309q0 168 -82 311t-224 226.5t-310 83.5q-169 0 -311.5 -83.5t-225 -226.5t-82.5 -311zM410 707q0 180 125.5 305t304.5 125q192 0 325 -152l-88 -74q-98 113 -237 113q-131 0 -223.5 -92.5t-92.5 -224.5q0 -129 93 -222.5t223 -93.5 q139 0 237 113l90 -72q-134 -153 -327 -153q-178 0 -304 125.5t-126 302.5z" />
<glyph unicode="&#xaa;" horiz-adv-x="749" d="M82 918q0 56 22 98.5t57 69t90.5 45t109 27.5t126.5 16v32q0 59 -35.5 84t-103.5 25q-94 0 -178 -43l-39 100q100 51 248 51q270 0 270 -239v-426q-95 -53 -264 -53q-150 0 -226.5 55.5t-76.5 157.5zM240 922q0 -119 153 -119q57 0 94 16v266q-50 -5 -84.5 -11.5 t-67.5 -18t-52.5 -28.5t-31 -43t-11.5 -62z" />
<glyph unicode="&#xab;" horiz-adv-x="1087" d="M102 684l308 465l135 -82l-252 -383l252 -383l-135 -82zM512 684l307 465l137 -82l-251 -383l251 -383l-137 -82z" />
<glyph unicode="&#xac;" d="M156 602v164h807v-481h-170v317h-637z" />
<glyph unicode="&#xad;" horiz-adv-x="716" d="M109 594v190h499v-190h-499z" />
<glyph unicode="&#xae;" horiz-adv-x="1667" d="M109 702q0 148 57.5 282.5t154.5 232t231 155.5t282 58q147 0 281 -58t231.5 -155.5t155 -232t57.5 -282.5t-57.5 -281.5t-155 -230t-231.5 -153.5t-281 -57q-148 0 -282 57t-231 153.5t-154.5 230t-57.5 281.5zM215 702q0 -167 82.5 -309t225 -224.5t311.5 -82.5 q168 0 310 82.5t224 224.5t82 309q0 168 -82 311.5t-224 227.5t-310 84q-169 0 -311.5 -84t-225 -227.5t-82.5 -311.5zM596 293v819q88 43 209 43q130 0 211.5 -67t81.5 -175q0 -102 -65 -163t-171 -72l277 -385h-142l-260 377h-24v-377h-117zM713 748h63q201 0 201 165 q0 79 -53.5 112.5t-128.5 33.5q-36 0 -82 -12v-299z" />
<glyph unicode="&#xaf;" horiz-adv-x="454" d="M-84 1284v135h623v-135h-623z" />
<glyph unicode="&#xb0;" horiz-adv-x="856" d="M113 1118q0 131 92.5 223.5t222.5 92.5t222.5 -92.5t92.5 -223.5q0 -130 -92.5 -222.5t-222.5 -92.5t-222.5 92.5t-92.5 222.5zM236 1118q0 -80 56 -136t136 -56t136.5 56.5t56.5 135.5t-56.5 135t-136.5 56t-136 -56t-56 -135z" />
<glyph unicode="&#xb1;" d="M156 141v154h807v-154h-807zM156 743v154h321v328h164v-328h322v-154h-322v-329h-164v329h-321z" />
<glyph unicode="&#xb2;" horiz-adv-x="770" d="M84 545l307 432q45 63 60.5 100.5t15.5 79.5q0 57 -39 93t-115 36q-75 0 -143 -33l-47 117q94 51 235 51q143 0 217 -69t74 -174q0 -102 -112 -246l-189 -242h309v-145h-573z" />
<glyph unicode="&#xb3;" horiz-adv-x="770" d="M94 586l49 121q70 -39 168 -39q76 0 117 36.5t41 100.5q0 151 -223 147v103q97 9 148.5 46t51.5 93q0 49 -35.5 75.5t-93.5 26.5q-80 0 -147 -34l-47 110q94 51 229 51q118 0 192 -55.5t74 -153.5q0 -65 -38.5 -111t-90.5 -71q166 -64 166 -225q0 -123 -89 -199t-226 -76 q-149 0 -246 54z" />
<glyph unicode="&#xb4;" horiz-adv-x="454" d="M82 1221l141 288q62 38 145 37.5t101 -43.5l-250 -282h-137z" />
<glyph unicode="&#xb6;" d="M51 1014q0 103 38.5 181t106 124t151.5 68t183 22h504v-117h-65v-1732h-162v1732h-246v-1732h-162v1077q-159 22 -253.5 123t-94.5 254z" />
<glyph unicode="&#xb7;" horiz-adv-x="536" d="M117 705q0 63 44 107t107 44t107.5 -44t44.5 -107t-44.5 -107.5t-107.5 -44.5t-107 44.5t-44 107.5z" />
<glyph unicode="&#xb8;" horiz-adv-x="454" d="M-47 -410l49 84q139 -12 234.5 6.5t95.5 63.5q0 41 -58.5 54.5t-193.5 2.5l47 78q375 33 375 -133q0 -99 -145.5 -139t-403.5 -17z" />
<glyph unicode="&#xb9;" horiz-adv-x="770" d="M139 1278q110 13 180 49t99 82h125v-864h-176v667q-75 -26 -209 -36z" />
<glyph unicode="&#xba;" horiz-adv-x="749" d="M68 1067q0 161 78.5 259.5t228.5 98.5q151 0 229 -98.5t78 -259.5q0 -160 -79 -260t-228 -100t-228 100t-79 260zM240 1069q0 -54 5.5 -95t20 -76.5t42 -54t67.5 -18.5q41 0 68.5 19t41.5 55t19.5 76t5.5 94q0 55 -5.5 96t-19.5 78t-41.5 56.5t-68.5 19.5t-68.5 -19.5 t-41.5 -56.5t-19.5 -78t-5.5 -96z" />
<glyph unicode="&#xbb;" horiz-adv-x="1087" d="M131 301l252 383l-252 383l137 82l305 -465l-305 -465zM543 301l252 383l-252 383l135 82l307 -465l-307 -465z" />
<glyph unicode="&#xbc;" horiz-adv-x="1687" d="M84 1278q104 13 178.5 49.5t104.5 81.5h122v-864h-176v667q-75 -26 -211 -36zM432 16l658 1434l139 -57l-658 -1436zM975 178v109l344 577h166v-579h65v-107h-65v-178h-168v178h-342zM1087 285h230v286l2 119h-4q-25 -60 -58 -117z" />
<glyph unicode="&#xbd;" horiz-adv-x="1687" d="M84 1278q104 13 178.5 49.5t104.5 81.5h122v-864h-176v667q-75 -26 -211 -36zM399 16l658 1434l139 -57l-657 -1436zM981 0l307 426q46 64 60 103.5t14 82.5q0 131 -154 131q-65 0 -131 -32l-47 114q102 52 223 52q143 0 217 -70.5t74 -175.5q0 -110 -112 -250l-189 -236 h307v-145h-569z" />
<glyph unicode="&#xbe;" horiz-adv-x="1687" d="M94 586l49 121q70 -39 170 -39q74 0 115 36.5t41 100.5q0 151 -223 147v103q97 9 148.5 46t51.5 93q0 49 -35.5 75.5t-93.5 26.5q-80 0 -147 -34l-47 110q94 51 229 51q118 0 192 -55.5t74 -153.5q0 -65 -38.5 -111t-90.5 -71q166 -64 166 -225q0 -123 -89 -199t-226 -76 q-149 0 -246 54zM496 16l657 1434l139 -57l-659 -1436zM985 178v109l344 577h166v-579h66v-107h-66v-178h-168v178h-342zM1098 285h229v286l2 119q-1 0 -8.5 -16t-22.5 -45.5t-30 -55.5z" />
<glyph unicode="&#xbf;" horiz-adv-x="864" d="M80 -115q0 67 29.5 126t76.5 100t96 68.5t97 41.5l22 264h189l31 -338q-115 -25 -197 -87t-82 -154q0 -84 54.5 -136.5t164.5 -52.5q108 0 209 54l68 -148q-141 -80 -324 -80q-200 0 -317 93t-117 249zM344 834q0 61 44 105t106 44q63 0 106 -43.5t43 -105.5 q0 -63 -43 -106.5t-106 -43.5q-62 0 -106 43.5t-44 106.5z" />
<glyph unicode="&#xc0;" horiz-adv-x="1226" d="M25 0l467 1409h245l465 -1409h-268l-109 362h-454l-113 -362h-233zM305 1798q17 43 99 43t147 -39l141 -286h-139zM412 514h376l-145 496q-14 46 -23 87.5t-12 60.5l-2 18h-4q-6 -62 -39 -166z" />
<glyph unicode="&#xc1;" horiz-adv-x="1226" d="M25 0l467 1409h245l465 -1409h-268l-109 362h-454l-113 -362h-233zM412 514h376l-145 496q-14 46 -23 87.5t-12 60.5l-2 18h-4q-6 -62 -39 -166zM518 1516l141 286q63 39 145.5 39t100.5 -43l-250 -282h-137z" />
<glyph unicode="&#xc2;" horiz-adv-x="1226" d="M25 0l467 1409h245l465 -1409h-268l-109 362h-454l-113 -362h-233zM326 1567l209 211q34 34 77 34q48 0 82 -34l207 -211l-67 -62l-220 158l-219 -158zM412 514h376l-145 496q-14 46 -23 87.5t-12 60.5l-2 18h-4q-6 -62 -39 -166z" />
<glyph unicode="&#xc3;" horiz-adv-x="1226" d="M25 0l467 1409h245l465 -1409h-268l-109 362h-454l-113 -362h-233zM303 1630q47 107 154 117q41 3 81 -10t67.5 -31t63.5 -31t68 -10q85 10 119 94l62 -112q-33 -97 -150 -111q-40 -5 -81 8t-70 30.5t-66.5 31t-71.5 10.5q-81 -10 -117 -96zM412 514h376l-145 496 q-14 46 -23 87.5t-12 60.5l-2 18h-4q-6 -62 -39 -166z" />
<glyph unicode="&#xc4;" horiz-adv-x="1226" d="M25 0l467 1409h245l465 -1409h-268l-109 362h-454l-113 -362h-233zM313 1642q0 44 34.5 75.5t82.5 31.5t82.5 -31.5t34.5 -75.5t-34.5 -74t-82.5 -30t-82.5 30t-34.5 74zM412 514h376l-145 496q-14 46 -23 87.5t-12 60.5l-2 18h-4q-6 -62 -39 -166zM682 1642 q0 44 34.5 75.5t82.5 31.5q47 0 81.5 -31.5t34.5 -75.5t-34 -74t-82 -30t-82.5 30t-34.5 74z" />
<glyph unicode="&#xc5;" horiz-adv-x="1226" d="M25 0l467 1409h245l465 -1409h-268l-109 362h-454l-113 -362h-233zM412 514h376l-145 496q-14 46 -23 87.5t-12 60.5l-2 18h-4q-6 -62 -39 -166zM442 1679q0 72 50 123t122 51q71 0 121.5 -51t50.5 -123q0 -71 -51 -121.5t-121 -50.5q-72 0 -122 50.5t-50 121.5z M524 1679q0 -37 26 -63.5t64 -26.5q37 0 64 26.5t27 63.5q0 38 -27 64t-64 26q-38 0 -64 -26t-26 -64z" />
<glyph unicode="&#xc6;" horiz-adv-x="1538" d="M-6 0l590 1409h766v-174h-484l107 -426h377v-172h-338l114 -463h363v-174h-578l-80 360h-456l-144 -360h-237zM434 516h377l-111 531q-6 31 -10 65t-5 52l-1 18h-4q-12 -63 -41 -135z" />
<glyph unicode="&#xc7;" horiz-adv-x="993" d="M100 705q0 116 22 222.5t66.5 198t108 159.5t152.5 106.5t194 38.5q180 0 291 -80l-57 -156q-80 49 -183 49q-87 0 -152 -45t-101 -123t-53 -169.5t-17 -198.5q0 -106 18.5 -198t56 -167.5t101 -119.5t147.5 -44q101 0 178 49l62 -168q-102 -79 -293 -79 q-130 0 -234.5 58t-170.5 158t-101 230t-35 279zM279 -410l49 84q139 -12 234 6.5t95 63.5q0 41 -58 54.5t-193 2.5l47 78q374 33 374 -133q0 -99 -146 -139.5t-402 -16.5z" />
<glyph unicode="&#xc8;" horiz-adv-x="919" d="M145 0v1409h686v-174h-425v-426h378v-172h-378v-463h425v-174h-686zM215 1798q17 43 99 43t147 -39l141 -286h-139z" />
<glyph unicode="&#xc9;" horiz-adv-x="919" d="M145 0v1409h686v-174h-425v-426h378v-172h-378v-463h425v-174h-686zM373 1516l141 286q65 39 146.5 39t99.5 -43l-248 -282h-139z" />
<glyph unicode="&#xca;" horiz-adv-x="919" d="M145 0v1409h686v-174h-425v-426h378v-172h-378v-463h425v-174h-686zM186 1567l209 211q34 34 80 34t80 -34l209 -211l-70 -62l-217 158l-221 -158z" />
<glyph unicode="&#xcb;" horiz-adv-x="919" d="M145 0v1409h689v-174h-426v-426h376v-172h-376v-463h426v-174h-689zM182 1642q0 44 34.5 75.5t82.5 31.5t82.5 -31.5t34.5 -75.5t-34.5 -74t-82.5 -30t-82.5 30t-34.5 74zM549 1642q0 44 34.5 75.5t82.5 31.5q47 0 81.5 -31.5t34.5 -75.5t-34 -74t-82 -30t-82.5 30 t-34.5 74z" />
<glyph unicode="&#xcc;" horiz-adv-x="561" d="M20 1798q17 43 99 43t147 -39l142 -286h-140zM152 0v1409h260v-1409h-260z" />
<glyph unicode="&#xcd;" horiz-adv-x="561" d="M150 0v1409h262v-1409h-262zM154 1516l141 286q65 39 147 39t99 -43l-248 -282h-139z" />
<glyph unicode="&#xce;" horiz-adv-x="561" d="M-6 1567l207 211q34 34 80 34q45 0 79 -34l207 -211l-67 -62l-219 158l-220 -158zM150 0v1409h262v-1409h-262z" />
<glyph unicode="&#xcf;" horiz-adv-x="561" d="M-20 1642q0 44 34.5 75.5t81.5 31.5q48 0 82.5 -31.5t34.5 -75.5t-34.5 -74t-82.5 -30t-82 30t-34 74zM150 0v1409h260v-1409h-260zM348 1642q0 44 34.5 75.5t82.5 31.5t82.5 -31.5t34.5 -75.5t-34.5 -74t-82.5 -30t-82.5 30t-34.5 74z" />
<glyph unicode="&#xd0;" horiz-adv-x="1292" d="M78 682v149h112v519q157 80 390 80q156 0 274 -52t191.5 -147.5t110 -225t36.5 -290.5q0 -162 -34.5 -293t-105.5 -231.5t-188.5 -155.5t-273.5 -55q-265 0 -400 79v623h-112zM444 178q55 -20 140 -20q183 0 264.5 135.5t81.5 425.5q0 277 -85.5 411t-264.5 134 q-75 0 -136 -23v-410h201v-149h-201v-504z" />
<glyph unicode="&#xd1;" horiz-adv-x="1331" d="M145 0v1409h246l504 -856q21 -36 40 -71.5t27 -53.5l9 -18h4q-6 67 -6 149v850h217v-1409h-209l-535 909q-21 36 -41.5 75.5t-30.5 61.5l-10 21h-4q9 -80 9 -164v-903h-220zM356 1630q44 107 154 117q40 3 80 -10t67.5 -31t64 -31t69.5 -10q86 10 116 94l64 -112 q-38 -98 -152 -111q-40 -5 -81 8t-69.5 30.5t-66 31t-70.5 10.5q-82 -10 -118 -96z" />
<glyph unicode="&#xd2;" horiz-adv-x="1259" d="M100 705q0 154 30.5 282.5t92.5 229t166 157t242 56.5t241.5 -56.5t165 -157.5t91.5 -229t30 -282q0 -155 -30 -283t-91.5 -229t-165 -157t-241.5 -56q-111 0 -200.5 37t-150.5 102.5t-102 157.5t-59.5 198.5t-18.5 229.5zM360 1798q18 43 100.5 43t145.5 -39l142 -286 h-138zM365 713q0 -541 266 -541q54 0 97 21.5t71 61.5t47.5 89t30 113t14.5 124.5t4 131.5q0 544 -264 544q-266 0 -266 -544z" />
<glyph unicode="&#xd3;" horiz-adv-x="1259" d="M100 705q0 154 30.5 282.5t92.5 229t166 157t242 56.5t241.5 -56.5t165 -157.5t91.5 -229t30 -282q0 -155 -30 -283t-91.5 -229t-165 -157t-241.5 -56q-111 0 -200.5 37t-150.5 102.5t-102 157.5t-59.5 198.5t-18.5 229.5zM365 713q0 -541 266 -541q54 0 97 21.5t71 61.5 t47.5 89t30 113t14.5 124.5t4 131.5q0 544 -264 544q-266 0 -266 -544zM504 1516l143 286q63 39 145 39t99 -43l-248 -282h-139z" />
<glyph unicode="&#xd4;" horiz-adv-x="1259" d="M100 705q0 154 30.5 282.5t92.5 229t166 157t242 56.5t241.5 -56.5t165 -157.5t91.5 -229t30 -282q0 -155 -30 -283t-91.5 -229t-165 -157t-241.5 -56q-111 0 -200.5 37t-150.5 102.5t-102 157.5t-59.5 198.5t-18.5 229.5zM342 1567l209 211q34 34 80 34t80 -34l209 -211 l-70 -62l-217 158l-221 -158zM365 713q0 -541 266 -541q54 0 97 21.5t71 61.5t47.5 89t30 113t14.5 124.5t4 131.5q0 544 -264 544q-266 0 -266 -544z" />
<glyph unicode="&#xd5;" horiz-adv-x="1259" d="M100 705q0 154 30.5 282.5t92.5 229t166 157t242 56.5t241.5 -56.5t165 -157.5t91.5 -229t30 -282q0 -155 -30 -283t-91.5 -229t-165 -157t-241.5 -56q-111 0 -200.5 37t-150.5 102.5t-102 157.5t-59.5 198.5t-18.5 229.5zM319 1630q47 107 156 117q40 3 80 -10t67.5 -31 t63.5 -31t68 -10q84 10 118 94l62 -112q-33 -97 -150 -111q-40 -5 -81 8t-69.5 30.5t-66 31t-71.5 10.5q-81 -10 -117 -96zM365 713q0 -541 266 -541q54 0 97 21.5t71 61.5t47.5 89t30 113t14.5 124.5t4 131.5q0 544 -264 544q-266 0 -266 -544z" />
<glyph unicode="&#xd6;" horiz-adv-x="1259" d="M100 705q0 154 30.5 282.5t92.5 229t166 157t242 56.5t241.5 -56.5t165 -157.5t91.5 -229t30 -282q0 -155 -30 -283t-91.5 -229t-165 -157t-241.5 -56q-111 0 -200.5 37t-150.5 102.5t-102 157.5t-59.5 198.5t-18.5 229.5zM330 1642q0 44 34.5 75.5t81.5 31.5 q48 0 82.5 -31.5t34.5 -75.5t-34.5 -74t-82.5 -30t-82 30t-34 74zM365 713q0 -541 266 -541q54 0 97 21.5t71 61.5t47.5 89t30 113t14.5 124.5t4 131.5q0 544 -264 544q-266 0 -266 -544zM698 1642q0 44 34.5 75.5t82.5 31.5t82.5 -31.5t34.5 -75.5t-34.5 -74t-82.5 -30 t-82.5 30t-34.5 74z" />
<glyph unicode="&#xd7;" d="M145 348l306 332l-306 334l111 108l303 -327l301 327l113 -110l-305 -332l305 -334l-111 -108l-303 329l-301 -327z" />
<glyph unicode="&#xd8;" horiz-adv-x="1267" d="M104 705q0 154 30.5 282.5t92.5 229t166 157t242 56.5q197 0 323 -123l109 172l76 -47l-121 -191q141 -188 141 -536q0 -155 -30 -283t-91.5 -229t-165 -157t-241.5 -56q-208 0 -334 129l-111 -175l-75 48l123 194q-134 194 -134 529zM350 713q0 -182 43 -291l451 706 q-71 146 -209 146q-81 0 -139 -47t-88.5 -129.5t-44 -177t-13.5 -207.5zM422 299q71 -145 213 -145q283 0 283 559q0 175 -46 295z" />
<glyph unicode="&#xd9;" horiz-adv-x="1220" d="M145 410v999h261v-997q0 -110 61.5 -172t153.5 -62q93 0 153 62t60 172v997h241v-999q0 -192 -129 -312.5t-336 -120.5t-336 120.5t-129 312.5zM369 1798q18 43 99 43t146 -39l142 -286h-138z" />
<glyph unicode="&#xda;" horiz-adv-x="1220" d="M145 410v999h261v-997q0 -110 61.5 -172t153.5 -62q93 0 153 62t60 172v997h241v-999q0 -192 -129 -312.5t-336 -120.5t-336 120.5t-129 312.5zM494 1516l141 286q63 39 145.5 39t100.5 -43l-250 -282h-137z" />
<glyph unicode="&#xdb;" horiz-adv-x="1220" d="M145 410v999h261v-997q0 -110 61.5 -172t153.5 -62q93 0 153 62t60 172v997h241v-999q0 -192 -129 -312.5t-336 -120.5t-336 120.5t-129 312.5zM330 1567l209 211q34 34 77 34q48 0 82 -34l209 -211l-69 -62l-220 158l-219 -158z" />
<glyph unicode="&#xdc;" horiz-adv-x="1220" d="M145 410v999h261v-997q0 -110 61.5 -172t153.5 -62q93 0 153 62t60 172v997h241v-999q0 -192 -129 -312.5t-336 -120.5t-336 120.5t-129 312.5zM322 1642q0 44 34.5 75.5t81.5 31.5q48 0 82.5 -31.5t34.5 -75.5t-34.5 -74t-82.5 -30t-82 30t-34 74zM690 1642 q0 44 34 75.5t83 31.5q48 0 82.5 -31.5t34.5 -75.5t-34.5 -74t-82.5 -30q-50 0 -83.5 30t-33.5 74z" />
<glyph unicode="&#xdd;" horiz-adv-x="1054" d="M18 1409h281l242 -584h4l250 584h245l-383 -801v-608h-260v608zM434 1516l141 286q63 39 145.5 39t100.5 -43l-250 -282h-137z" />
<glyph unicode="&#xde;" horiz-adv-x="1128" d="M145 0v1409h256v-240q75 21 142 21q250 0 374.5 -120.5t124.5 -321.5q0 -98 -34.5 -180t-103 -144t-183.5 -92t-264 -19l-56 4v-317h-256zM401 475l48 -4q175 -14 259.5 60.5t84.5 209.5q0 147 -72 224t-199 77q-62 0 -121 -18v-549z" />
<glyph unicode="&#xdf;" horiz-adv-x="1179" d="M137 0v1061q0 89 15 169.5t49.5 154t85.5 126.5t128.5 84t172.5 31q137 0 236 -65.5t146.5 -171t47.5 -236.5q0 -109 -27 -188q-96 -14 -145 -56t-49 -118q0 -51 28 -90t103 -91q87 -59 128.5 -127t41.5 -164q0 -149 -105 -241t-260 -92q-147 0 -219 53l45 164 q58 -35 131 -35q70 0 116 43.5t46 114.5q0 58 -29 98t-100 86q-80 53 -119 115t-39 147q0 95 53.5 160t143.5 94q14 48 14 121q0 311 -188 311q-73 0 -118.5 -48t-64 -129t-18.5 -202v-1079h-250z" />
<glyph unicode="&#xe0;" horiz-adv-x="1062" d="M80 315q0 85 32.5 151t86.5 109t136 74t167 47t194 27v59q0 101 -57 142t-162 41q-136 0 -276 -68l-58 143q173 84 379 84q89 0 160 -20t128.5 -63t88.5 -118.5t31 -179.5v-684q-148 -79 -400 -79q-223 0 -336.5 86.5t-113.5 248.5zM279 1503q18 43 100.5 43.5 t144.5 -37.5l142 -288h-138zM315 324q0 -205 232 -205q85 0 149 31v454q-97 -12 -160.5 -28t-117 -47t-78.5 -81t-25 -124z" />
<glyph unicode="&#xe1;" horiz-adv-x="1062" d="M80 315q0 85 32.5 151t86.5 109t136 74t167 47t194 27v59q0 101 -57 142t-162 41q-136 0 -276 -68l-58 143q173 84 379 84q89 0 160 -20t128.5 -63t88.5 -118.5t31 -179.5v-684q-148 -79 -400 -79q-223 0 -336.5 86.5t-113.5 248.5zM315 324q0 -205 232 -205q85 0 149 31 v454q-97 -12 -160.5 -28t-117 -47t-78.5 -81t-25 -124zM451 1221l143 288q61 38 144 37.5t100 -43.5l-248 -282h-139z" />
<glyph unicode="&#xe2;" horiz-adv-x="1062" d="M80 315q0 85 32.5 151t86.5 109t136 74t167 47t194 27v59q0 101 -57 142t-162 41q-136 0 -276 -68l-58 143q173 84 379 84q89 0 160 -20t128.5 -63t88.5 -118.5t31 -179.5v-684q-148 -79 -400 -79q-223 0 -336.5 86.5t-113.5 248.5zM250 1272l209 211q32 35 80 35 q47 0 79 -35l209 -211l-69 -62l-217 160l-222 -160zM315 324q0 -205 232 -205q85 0 149 31v454q-97 -12 -160.5 -28t-117 -47t-78.5 -81t-25 -124z" />
<glyph unicode="&#xe3;" horiz-adv-x="1062" d="M80 315q0 85 32.5 151t86.5 109t136 74t167 47t194 27v59q0 101 -57 142t-162 41q-136 0 -276 -68l-58 143q173 84 379 84q89 0 160 -20t128.5 -63t88.5 -118.5t31 -179.5v-684q-148 -79 -400 -79q-223 0 -336.5 86.5t-113.5 248.5zM225 1337q48 105 154 115q41 4 81 -9 t67 -30.5t63 -30.5t69 -10q84 7 119 94l62 -114q-39 -96 -152 -109q-39 -5 -80 7.5t-70 30t-66.5 30.5t-70.5 10q-83 -7 -116 -96zM315 324q0 -205 232 -205q85 0 149 31v454q-97 -12 -160.5 -28t-117 -47t-78.5 -81t-25 -124z" />
<glyph unicode="&#xe4;" horiz-adv-x="1062" d="M80 315q0 85 32.5 151t86.5 109t136 74t167 47t194 27v59q0 101 -57 142t-162 41q-136 0 -276 -68l-58 143q173 84 379 84q89 0 160 -20t128.5 -63t88.5 -118.5t31 -179.5v-684q-148 -79 -400 -79q-223 0 -336.5 86.5t-113.5 248.5zM246 1354q0 44 33 74t81 30t83.5 -30 t35.5 -74t-35.5 -75.5t-83.5 -31.5q-47 0 -80.5 31.5t-33.5 75.5zM315 324q0 -205 232 -205q85 0 149 31v454q-97 -12 -160.5 -28t-117 -47t-78.5 -81t-25 -124zM614 1354q0 44 33.5 74t81.5 30t82.5 -30t34.5 -74t-34.5 -75.5t-82.5 -31.5q-47 0 -81 31.5t-34 75.5z" />
<glyph unicode="&#xe5;" horiz-adv-x="1062" d="M80 315q0 85 32.5 151t86.5 109t136 74t167 47t194 27v59q0 101 -57 142t-162 41q-136 0 -276 -68l-58 143q173 84 379 84q89 0 160 -20t128.5 -63t88.5 -118.5t31 -179.5v-684q-148 -79 -400 -79q-223 0 -336.5 86.5t-113.5 248.5zM315 324q0 -205 232 -205q85 0 149 31 v454q-97 -12 -160.5 -28t-117 -47t-78.5 -81t-25 -124zM371 1386q0 71 51 122t123 51q70 0 121 -51t51 -122q0 -72 -50.5 -123t-121.5 -51q-72 0 -123 51t-51 123zM455 1386q0 -38 26 -64t64 -26q37 0 63.5 26t26.5 64q0 37 -26.5 64t-63.5 27q-38 0 -64 -27t-26 -64z" />
<glyph unicode="&#xe6;" horiz-adv-x="1671" d="M80 315q0 81 32 146t85.5 108.5t133.5 75t166 48.5t193 28v61q0 185 -225 185q-126 0 -264 -68l-56 145q151 80 367 80q232 0 307 -174q51 85 139 129.5t181 44.5q214 0 327 -137.5t113 -402.5v-27l-672 -96q12 -157 89.5 -233t209.5 -76q169 0 277 59l59 -154 q-146 -77 -366 -77q-116 0 -206 47.5t-147 134.5q-90 -182 -334 -182q-200 0 -304.5 87.5t-104.5 247.5zM305 322q0 -199 197 -199q80 0 134 49.5t54 132.5v293q-98 -12 -161.5 -28t-118 -46t-80 -79.5t-25.5 -122.5zM893 590l453 69q-3 165 -58.5 239.5t-161.5 74.5 q-108 0 -172 -96.5t-61 -286.5z" />
<glyph unicode="&#xe7;" horiz-adv-x="851" d="M92 555q0 267 123.5 418t314.5 151q168 0 256 -75l-53 -142q-58 47 -147 47q-124 0 -183 -103.5t-59 -291.5q0 -186 62 -292.5t176 -106.5q90 0 149 49l57 -154q-82 -75 -260 -75q-194 0 -315 153.5t-121 421.5zM164 -410l49 84q139 -12 234.5 6.5t95.5 63.5 q0 41 -58.5 54.5t-193.5 2.5l47 78q375 33 375 -133q0 -99 -145.5 -139t-403.5 -17z" />
<glyph unicode="&#xe8;" horiz-adv-x="1099" d="M92 555q0 268 126.5 418.5t344.5 150.5q217 0 330 -137.5t113 -394.5v-33l-676 -96q30 -309 301 -309q162 0 278 61l60 -158q-146 -77 -365 -77q-238 0 -375 149.5t-137 425.5zM283 1503q18 43 100.5 43.5t144.5 -37.5l142 -288h-138zM315 588l457 69q0 314 -219 314 q-114 0 -178 -96t-60 -287z" />
<glyph unicode="&#xe9;" horiz-adv-x="1099" d="M92 555q0 268 126.5 418.5t344.5 150.5q217 0 330 -137.5t113 -394.5v-33l-676 -96q30 -309 301 -309q162 0 278 61l60 -158q-146 -77 -365 -77q-238 0 -375 149.5t-137 425.5zM315 588l457 69q0 314 -219 314q-114 0 -178 -96t-60 -287zM463 1221l143 288 q61 38 144 37.5t100 -43.5l-248 -282h-139z" />
<glyph unicode="&#xea;" horiz-adv-x="1099" d="M92 555q0 268 126.5 418.5t344.5 150.5q217 0 330 -137.5t113 -394.5v-33l-676 -96q30 -309 301 -309q162 0 278 61l60 -158q-146 -77 -365 -77q-238 0 -375 149.5t-137 425.5zM270 1272l209 211q32 35 80 35t80 -35l209 -211l-70 -62l-219 160l-219 -160zM315 588 l457 69q0 314 -219 314q-114 0 -178 -96t-60 -287z" />
<glyph unicode="&#xeb;" horiz-adv-x="1099" d="M92 555q0 268 126.5 418.5t344.5 150.5q217 0 330 -137.5t113 -394.5v-33l-676 -96q30 -309 301 -309q162 0 278 61l60 -158q-146 -77 -365 -77q-238 0 -375 149.5t-137 425.5zM262 1354q0 44 34.5 74t82.5 30t82.5 -30t34.5 -74t-34.5 -75.5t-82.5 -31.5t-82.5 31.5 t-34.5 75.5zM315 588l457 69q0 314 -219 314q-114 0 -178 -96t-60 -287zM631 1354q0 44 33.5 74t83.5 30q48 0 82 -30t34 -74t-34.5 -75.5t-81.5 -31.5q-49 0 -83 31.5t-34 75.5z" />
<glyph unicode="&#xec;" horiz-adv-x="532" d="M6 1503q17 43 100 43.5t144 -37.5l143 -288h-139zM141 0v1104h250v-1104h-250z" />
<glyph unicode="&#xed;" horiz-adv-x="532" d="M141 0v1104h250v-1104h-250zM141 1221l142 288q62 38 144.5 37.5t100.5 -43.5l-249 -282h-138z" />
<glyph unicode="&#xee;" horiz-adv-x="532" d="M-23 1272l209 211q32 35 80 35t80 -35l209 -211l-70 -62l-217 160l-221 -160zM143 0v1104h248v-1104h-248z" />
<glyph unicode="&#xef;" horiz-adv-x="532" d="M-33 1354q0 44 33.5 74t81.5 30t83.5 -30t35.5 -74t-35.5 -75.5t-83.5 -31.5q-47 0 -81 31.5t-34 75.5zM141 0v1104h250v-1104h-250zM334 1354q0 44 33.5 74t83.5 30q48 0 82 -30t34 -74t-34.5 -75.5t-81.5 -31.5q-49 0 -83 31.5t-34 75.5z" />
<glyph unicode="&#xf0;" horiz-adv-x="1110" d="M92 545q0 90 17 173t52.5 155.5t87 126t125 84t161.5 30.5q63 0 122 -16q-67 160 -127 252l-184 -58q-26 52 -65 97l180 55q-44 63 -96 117l208 65q67 -70 97 -113l164 52q29 -33 67 -95l-164 -53q273 -433 273 -864q0 -128 -28 -232t-83 -181.5t-142 -120t-200 -42.5 q-217 0 -341 154.5t-124 413.5zM340 551q0 -90 10.5 -160t34.5 -126t67.5 -85.5t104.5 -29.5q60 0 101.5 31t63.5 90t31 127.5t9 158.5q0 98 -19 210t-47 185q-66 17 -116 17q-130 0 -185 -107.5t-55 -310.5z" />
<glyph unicode="&#xf1;" horiz-adv-x="1136" d="M133 0v1044q170 80 436 80q435 0 435 -333v-791h-250v791q0 176 -199 176q-91 0 -172 -31v-936h-250zM254 1337q23 50 59 79.5t97 35.5q40 4 80 -9t67 -30.5t63 -30.5t68 -10q84 7 119 94l61 -114q-34 -96 -149 -109q-40 -5 -81 7.5t-70 30t-66.5 30.5t-71.5 10 q-80 -7 -117 -96z" />
<glyph unicode="&#xf2;" horiz-adv-x="1101" d="M92 551q0 125 28.5 229t84.5 181t144.5 120t201.5 43q114 0 202.5 -43t144 -120t84 -181t28.5 -229q0 -166 -49.5 -293t-154.5 -202.5t-255 -75.5t-255 75.5t-154.5 202.5t-49.5 293zM270 1503q17 43 100 43.5t146 -37.5l141 -288h-139zM340 553q0 -403 211 -403 q52 0 90.5 22.5t61 58.5t36.5 90.5t18.5 109t4.5 122.5q0 88 -8.5 155t-30 129.5t-65 96t-107.5 33.5q-63 0 -106.5 -33.5t-65.5 -95.5t-30.5 -130t-8.5 -155z" />
<glyph unicode="&#xf3;" horiz-adv-x="1101" d="M92 551q0 125 28.5 229t84.5 181t144.5 120t201.5 43q114 0 202.5 -43t144 -120t84 -181t28.5 -229q0 -166 -49.5 -293t-154.5 -202.5t-255 -75.5t-255 75.5t-154.5 202.5t-49.5 293zM340 553q0 -403 211 -403q52 0 90.5 22.5t61 58.5t36.5 90.5t18.5 109t4.5 122.5 q0 88 -8.5 155t-30 129.5t-65 96t-107.5 33.5q-63 0 -106.5 -33.5t-65.5 -95.5t-30.5 -130t-8.5 -155zM451 1221l143 288q61 38 144 37.5t100 -43.5l-248 -282h-139z" />
<glyph unicode="&#xf4;" horiz-adv-x="1101" d="M92 551q0 125 28.5 229t84.5 181t144.5 120t201.5 43q114 0 202.5 -43t144 -120t84 -181t28.5 -229q0 -166 -49.5 -293t-154.5 -202.5t-255 -75.5t-255 75.5t-154.5 202.5t-49.5 293zM262 1272l209 211q32 35 80 35t80 -35l209 -211l-70 -62l-219 160l-219 -160zM340 553 q0 -403 211 -403q52 0 90.5 22.5t61 58.5t36.5 90.5t18.5 109t4.5 122.5q0 88 -8.5 155t-30 129.5t-65 96t-107.5 33.5q-63 0 -106.5 -33.5t-65.5 -95.5t-30.5 -130t-8.5 -155z" />
<glyph unicode="&#xf5;" horiz-adv-x="1101" d="M92 551q0 125 28.5 229t84.5 181t144.5 120t201.5 43q114 0 202.5 -43t144 -120t84 -181t28.5 -229q0 -166 -49.5 -293t-154.5 -202.5t-255 -75.5t-255 75.5t-154.5 202.5t-49.5 293zM242 1337q21 50 56.5 79.5t96.5 35.5q40 4 80 -9t67.5 -30.5t64 -30.5t69.5 -10 q86 8 117 94l63 -114q-39 -96 -151 -109q-40 -5 -81 7.5t-69.5 30t-66 30.5t-70.5 10q-82 -7 -119 -96zM340 553q0 -403 211 -403q52 0 90.5 22.5t61 58.5t36.5 90.5t18.5 109t4.5 122.5q0 88 -8.5 155t-30 129.5t-65 96t-107.5 33.5q-63 0 -106.5 -33.5t-65.5 -95.5 t-30.5 -130t-8.5 -155z" />
<glyph unicode="&#xf6;" horiz-adv-x="1101" d="M92 551q0 125 28.5 229t84.5 181t144.5 120t201.5 43q114 0 202.5 -43t144 -120t84 -181t28.5 -229q0 -166 -49.5 -293t-154.5 -202.5t-255 -75.5t-255 75.5t-154.5 202.5t-49.5 293zM250 1354q0 44 34.5 74t82.5 30t82 -30t34 -74t-34.5 -75.5t-81.5 -31.5 q-48 0 -82.5 31.5t-34.5 75.5zM340 553q0 -403 211 -403q52 0 90.5 22.5t61 58.5t36.5 90.5t18.5 109t4.5 122.5q0 88 -8.5 155t-30 129.5t-65 96t-107.5 33.5q-63 0 -106.5 -33.5t-65.5 -95.5t-30.5 -130t-8.5 -155zM618 1354q0 44 33.5 74t81.5 30t83.5 -30t35.5 -74 t-35.5 -75.5t-83.5 -31.5q-47 0 -81 31.5t-34 75.5z" />
<glyph unicode="&#xf7;" d="M156 614v129h807v-129h-807zM440 350q0 50 35 84.5t84 34.5q48 0 82.5 -35t34.5 -84t-34.5 -83t-82.5 -34q-50 0 -84.5 34t-34.5 83zM440 1008q0 49 34.5 83.5t84.5 34.5q48 0 82.5 -34.5t34.5 -83.5t-34.5 -83t-82.5 -34q-50 0 -84.5 34t-34.5 83z" />
<glyph unicode="&#xf8;" horiz-adv-x="1110" d="M92 551q0 168 50.5 295.5t156 202.5t254.5 75q142 0 246 -71l90 157l63 -36l-96 -164q79 -76 120.5 -194.5t41.5 -264.5q0 -166 -50.5 -293t-156.5 -202.5t-256 -75.5q-149 0 -250 75l-94 -161l-64 34l101 172q-77 75 -116.5 192t-39.5 259zM322 555q0 -161 40 -254 l351 602q-61 84 -158 84q-66 0 -113.5 -36.5t-72.5 -100.5t-36 -136.5t-11 -158.5zM397 217q61 -84 158 -84q231 0 231 422q0 170 -41 264z" />
<glyph unicode="&#xf9;" d="M133 350v754h250v-768q0 -83 47 -134.5t139 -51.5q104 0 166 36v918h250v-1038q-167 -89 -424 -89q-218 0 -323 94t-105 279zM299 1503q17 43 100 43.5t146 -37.5l141 -288h-139z" />
<glyph unicode="&#xfa;" d="M133 350v754h250v-768q0 -83 47 -134.5t139 -51.5q104 0 166 36v918h250v-1038q-167 -89 -424 -89q-218 0 -323 94t-105 279zM461 1221l141 288q63 38 146 37.5t100 -43.5l-248 -282h-139z" />
<glyph unicode="&#xfb;" d="M133 350v754h250v-768q0 -83 47 -134.5t139 -51.5q104 0 166 36v918h250v-1038q-167 -89 -424 -89q-218 0 -323 94t-105 279zM272 1272l207 211q32 35 80 35t80 -35l209 -211l-70 -62l-217 160l-221 -160z" />
<glyph unicode="&#xfc;" d="M133 350v754h250v-768q0 -83 47 -134.5t139 -51.5q104 0 166 36v918h250v-1038q-167 -89 -424 -89q-218 0 -323 94t-105 279zM258 1354q0 44 34.5 74t82.5 30t82.5 -30t34.5 -74t-34.5 -75.5t-82.5 -31.5t-82.5 31.5t-34.5 75.5zM627 1354q0 44 33.5 74t82.5 30 q48 0 82.5 -30t34.5 -74t-34.5 -75.5t-82.5 -31.5q-49 0 -82.5 31t-33.5 76z" />
<glyph unicode="&#xfd;" horiz-adv-x="1034" d="M43 1104h266l219 -825h4l228 825h235l-503 -1544h-267l185 440zM426 1221l141 288q63 38 146 37.5t100 -43.5l-248 -282h-139z" />
<glyph unicode="&#xfe;" horiz-adv-x="1126" d="M133 -440v2048h248v-533q85 45 192 45q212 0 336.5 -143.5t124.5 -398.5q0 -138 -38 -250t-104 -186t-156 -114t-195 -40q-88 0 -158 20v-448h-250zM383 152q66 -17 109 -17q79 0 137.5 33t92 92.5t49 133t15.5 163.5q0 204 -65.5 310t-208.5 106q-66 0 -129 -29v-792z " />
<glyph unicode="&#xff;" horiz-adv-x="1034" d="M43 1104h266l219 -825h4l228 825h235l-503 -1544h-267l185 440zM231 1354q0 44 34.5 74t82.5 30t82.5 -30t34.5 -74t-34.5 -75.5t-82.5 -31.5t-82.5 31.5t-34.5 75.5zM600 1354q0 44 33.5 74t81.5 30t83.5 -30t35.5 -74t-35.5 -75.5t-83.5 -31.5q-47 0 -81 31.5t-34 75.5 z" />
<glyph unicode="&#x152;" horiz-adv-x="1568" d="M100 705q0 218 61 378.5t191.5 253.5t321.5 93q90 0 172 -21h635v-174h-426v-426h379v-172h-379v-461h426v-176h-635q-70 -20 -170 -20q-191 0 -322 93.5t-192.5 254t-61.5 377.5zM367 709q0 -85 7.5 -158.5t29.5 -148.5t56.5 -128t92 -86.5t133.5 -33.5q75 0 125 12 v1085q-62 17 -125 17q-77 0 -135 -34.5t-92.5 -88t-55.5 -130t-28.5 -149.5t-7.5 -157z" />
<glyph unicode="&#x153;" horiz-adv-x="1736" d="M92 551q0 168 50 295.5t154 202.5t251 75q109 0 187 -49t136 -151q52 99 141 149.5t193 50.5q218 0 329.5 -139t111.5 -416v-18l-668 -80q8 -81 30.5 -140t50.5 -93t66.5 -54t73 -26t76.5 -6q158 0 274 61l60 -156q-68 -38 -149 -57.5t-216 -19.5q-123 0 -218 55 t-151 166q-48 -106 -131 -163.5t-196 -57.5q-148 0 -252.5 75.5t-153.5 202.5t-49 293zM334 555q0 -405 213 -405q54 0 94 25.5t62.5 64t35.5 96t17 107.5t4 112q0 65 -3.5 115t-16 109t-34.5 97.5t-62.5 64.5t-96.5 26q-213 0 -213 -412zM963 600l448 53q0 165 -58 245.5 t-161 80.5q-108 0 -171.5 -96t-57.5 -283z" />
<glyph unicode="&#x178;" horiz-adv-x="1054" d="M18 1409h281l242 -584h4l250 584h245l-383 -801v-608h-260v608zM240 1642q0 44 33.5 75.5t80.5 31.5q48 0 83.5 -31.5t35.5 -75.5t-35.5 -74t-83.5 -30t-81 30t-33 74zM608 1642q0 44 34 75.5t81 31.5q48 0 82.5 -31.5t34.5 -75.5t-34.5 -74t-82.5 -30t-81.5 30t-33.5 74 z" />
<glyph unicode="&#x2c6;" horiz-adv-x="454" d="M-61 1272l208 211q32 35 80 35t80 -35l209 -211l-70 -62l-219 160l-219 -160z" />
<glyph unicode="&#x2dc;" horiz-adv-x="454" d="M-80 1337q48 105 154 115q41 4 81 -9t67 -30.5t63 -30.5t69 -10q84 7 119 94l62 -114q-34 -96 -152 -109q-39 -5 -80 7.5t-70 30t-66.5 30.5t-70.5 10q-83 -7 -116 -96z" />
<glyph unicode="&#x2000;" horiz-adv-x="926" />
<glyph unicode="&#x2001;" horiz-adv-x="1853" />
<glyph unicode="&#x2002;" horiz-adv-x="926" />
<glyph unicode="&#x2003;" horiz-adv-x="1853" />
<glyph unicode="&#x2004;" horiz-adv-x="617" />
<glyph unicode="&#x2005;" horiz-adv-x="463" />
<glyph unicode="&#x2006;" horiz-adv-x="308" />
<glyph unicode="&#x2007;" horiz-adv-x="308" />
<glyph unicode="&#x2008;" horiz-adv-x="231" />
<glyph unicode="&#x2009;" horiz-adv-x="370" />
<glyph unicode="&#x200a;" horiz-adv-x="102" />
<glyph unicode="&#x2010;" horiz-adv-x="716" d="M109 594v190h499v-190h-499z" />
<glyph unicode="&#x2011;" horiz-adv-x="716" d="M109 594v190h499v-190h-499z" />
<glyph unicode="&#x2012;" horiz-adv-x="716" d="M109 594v190h499v-190h-499z" />
<glyph unicode="&#x2013;" horiz-adv-x="839" d="M0 608v158h840v-158h-840z" />
<glyph unicode="&#x2014;" horiz-adv-x="1679" d="M0 618v136h1679v-136h-1679z" />
<glyph unicode="&#x2018;" horiz-adv-x="587" d="M102 1059l285 549h129l-174 -549q-53 -72 -145 -72q-82 0 -95 72z" />
<glyph unicode="&#x2019;" horiz-adv-x="587" d="M72 997l174 549q53 72 143 72q80 0 96 -72l-284 -549h-129z" />
<glyph unicode="&#x201a;" horiz-adv-x="587" d="M72 -346l174 549q52 71 145 71q77 0 94 -71l-284 -549h-129z" />
<glyph unicode="&#x201c;" horiz-adv-x="987" d="M102 1059l285 549h129l-174 -549q-53 -72 -145 -72q-82 0 -95 72zM504 1059l282 549h129l-172 -549q-53 -72 -145 -72q-81 0 -94 72z" />
<glyph unicode="&#x201d;" horiz-adv-x="987" d="M72 997l174 549q53 72 143 72q80 0 96 -72l-284 -549h-129zM473 997l172 549q53 72 146 72q82 0 94 -72l-285 -549h-127z" />
<glyph unicode="&#x201e;" horiz-adv-x="987" d="M72 -346l174 549q52 71 143 71q79 0 96 -71l-284 -549h-129zM473 -346l172 549q52 71 146 71q81 0 94 -71l-285 -549h-127z" />
<glyph unicode="&#x2022;" horiz-adv-x="733" d="M125 735q0 101 71 171.5t171 70.5t170.5 -70.5t70.5 -171.5q0 -100 -70.5 -170.5t-170.5 -70.5t-171 70.5t-71 170.5z" />
<glyph unicode="&#x2026;" horiz-adv-x="1808" d="M152 137q0 63 43.5 106.5t105.5 43.5q63 0 106.5 -43.5t43.5 -106.5q0 -62 -43.5 -105.5t-106.5 -43.5q-61 0 -105 44t-44 105zM754 137q0 63 44 106.5t107 43.5q62 0 106 -43.5t44 -106.5q0 -61 -44 -105t-106 -44q-63 0 -107 43.5t-44 105.5zM1358 137q0 63 43.5 106.5 t105.5 43.5t106 -43.5t44 -106.5q0 -61 -44 -105t-106 -44q-61 0 -105 44t-44 105z" />
<glyph unicode="&#x202f;" horiz-adv-x="370" />
<glyph unicode="&#x2039;" horiz-adv-x="675" d="M102 684l308 465l135 -82l-252 -383l252 -383l-135 -82z" />
<glyph unicode="&#x203a;" horiz-adv-x="675" d="M131 301l250 383l-250 383l135 82l307 -465l-307 -465z" />
<glyph unicode="&#x205f;" horiz-adv-x="463" />
<glyph unicode="&#x20ac;" d="M96 510v123l170 -15q-2 29 -2 87q0 63 6 124l-174 -16v123l187 -16q20 111 59.5 202t100 161t147 108.5t192.5 38.5q173 0 273 -78l-56 -154q-73 51 -176 51q-229 0 -284 -329l358 16v-123l-373 18q-6 -62 -6 -124t2 -91l377 17v-123l-362 18q52 -358 288 -358 q91 0 172 51l60 -160q-103 -81 -273 -81q-111 0 -200.5 41t-150.5 115.5t-99.5 172.5t-55.5 217z" />
<glyph unicode="&#x2122;" horiz-adv-x="1601" d="M84 1313v96h514v-96h-192v-611h-127v611h-195zM629 702l98 707h168l160 -567l155 567h170l97 -707h-125l-68 578l-172 -578h-119l-174 578l-65 -578h-125z" />
<glyph unicode="&#xe000;" horiz-adv-x="1105" d="M0 0v1106h1106v-1106h-1106z" />
<glyph unicode="&#xfb01;" horiz-adv-x="1161" d="M74 944v160h123v133q0 187 115 286.5t317 84.5v-160q-88 -2 -135.5 -44t-47.5 -142v-158h183v-160h-183v-944h-249v944h-123zM754 1417q0 51 40.5 87t98.5 36q57 0 97 -36t40 -87q0 -50 -40 -85.5t-97 -35.5q-58 0 -98.5 35.5t-40.5 85.5zM768 1104h250v-1104h-248z" />
<glyph unicode="&#xfb02;" horiz-adv-x="1171" d="M74 944v160h123v133q0 187 115 286.5t317 84.5v-160q-88 -2 -135.5 -44t-47.5 -142v-158h183v-160h-183v-944h-249v944h-123zM778 0v1608h250v-1608h-250z" />
</font>
</defs>
</svg>
